<svg width="817pt" height="253pt" viewBox="0.00 0.00 817.00 253.00" xmlns="http://www.w3.org/2000/svg" xmlns:xlink="http://www.w3.org/1999/xlink">
<g id="graph0" class="graph" transform="scale(1 1) rotate(0) translate(4 249)">
<title>G</title>
<polygon fill="white" stroke="transparent" points="-4,4 -4,-249 813,-249 813,4 -4,4"></polygon>
<!-- n0out1 -->
<!-- n0out2 -->
<!-- n0out1&#45;&gt;n0out2 -->
<!-- n0out3 -->
<!-- n0out2&#45;&gt;n0out3 -->
<!-- n0out4 -->
<!-- n0out3&#45;&gt;n0out4 -->
<!-- n0out5 -->
<!-- n0out4&#45;&gt;n0out5 -->
<!-- n0out6 -->
<!-- n0out5&#45;&gt;n0out6 -->
<!-- n0out7 -->
<!-- n0out6&#45;&gt;n0out7 -->
<!-- n0out8 -->
<!-- n0out7&#45;&gt;n0out8 -->
<!-- n0out9 -->
<!-- n0out8&#45;&gt;n0out9 -->
<!-- n0out10 -->
<!-- n0out9&#45;&gt;n0out10 -->
<!-- n0out11 -->
<!-- n0out10&#45;&gt;n0out11 -->
<!-- n0out12 -->
<!-- n0out11&#45;&gt;n0out12 -->
<!-- n0out13 -->
<!-- n0out12&#45;&gt;n0out13 -->
<!-- n1 -->
<!-- S -->
<g id="n1" class="node">
<title>n1</title>
<polygon fill="none" stroke="black" points="590,-219.5 590,-244.5 614,-244.5 614,-219.5 590,-219.5"></polygon>
<text text-anchor="start" x="597" y="-228.3" font-family="Serif" font-size="14.00">S</text>
</g>
<!-- n1&#45;&gt;n0out13 -->
<!-- signal_level -->
<g id="e27" class="edge">
<title>n1:s-&gt;n0out13:n</title>
<path fill="none" stroke="black" d="M602,-220C602,-113.22 728.16,-153.62 783,-62 796.39,-39.62 796.98,-30.04 797,-6.01"></path>
<polygon fill="black" stroke="black" points="798.75,-6 797,-1 795.25,-6 798.75,-6"></polygon>
</g>
<!-- n2 -->
<!-- X -->
<g id="n2" class="node">
<title>n2</title>
<polygon fill="none" stroke="black" points="390,-158.5 390,-183.5 414,-183.5 414,-158.5 390,-158.5"></polygon>
<text text-anchor="start" x="397" y="-167.3" font-family="Serif" font-size="14.00">X</text>
</g>
<!-- n1&#45;&gt;n2 -->
<!-- signal_level -->
<g id="e1" class="edge">
<title>n1:s-&gt;n2:n</title>
<path fill="none" stroke="black" d="M602,-220C602,-131.45 409.74,-268.76 402.23,-189.03"></path>
<polygon fill="black" stroke="black" points="403.97,-188.92 402,-184 400.48,-189.07 403.97,-188.92"></polygon>
</g>
<!-- n3 -->
<!-- Y -->
<g id="n3" class="node">
<title>n3</title>
<polygon fill="none" stroke="black" points="370,-97.5 370,-122.5 394,-122.5 394,-97.5 370,-97.5"></polygon>
<text text-anchor="start" x="377" y="-106.3" font-family="Serif" font-size="14.00">Y</text>
</g>
<!-- n2&#45;&gt;n3 -->
<!-- X_level -->
<g id="e2" class="edge">
<title>n2:s-&gt;n3:n</title>
<path fill="none" stroke="black" d="M402,-159C402,-142.56 385.86,-141.38 382.58,-128.03"></path>
<polygon fill="black" stroke="black" points="384.31,-127.77 382,-123 380.83,-128.17 384.31,-127.77"></polygon>
</g>
<!-- n4 -->
<!-- Z1 -->
<g id="n4" class="node">
<title>n4</title>
<polygon fill="none" stroke="black" points="0,-36.5 0,-61.5 48,-61.5 48,-36.5 0,-36.5"></polygon>
<text text-anchor="start" x="14.5" y="-45.3" font-family="Serif" font-size="14.00">Z1</text>
</g>
<!-- n2&#45;&gt;n4 -->
<!-- X_level -->
<g id="e3" class="edge">
<title>n2:s-&gt;n4:n</title>
<path fill="none" stroke="black" d="M402,-159C402,-89.43 155.44,-149.22 91,-123 51.52,-106.94 14.97,-106.38 12.17,-67"></path>
<polygon fill="black" stroke="black" points="13.92,-66.94 12,-62 10.42,-67.06 13.92,-66.94"></polygon>
</g>
<!-- n5 -->
<!-- Z2 -->
<g id="n5" class="node">
<title>n5</title>
<polygon fill="none" stroke="black" points="66,-36.5 66,-61.5 114,-61.5 114,-36.5 66,-36.5"></polygon>
<text text-anchor="start" x="80.5" y="-45.3" font-family="Serif" font-size="14.00">Z2</text>
</g>
<!-- n2&#45;&gt;n5 -->
<!-- X_level -->
<g id="e4" class="edge">
<title>n2:s-&gt;n5:n</title>
<path fill="none" stroke="black" d="M402,-159C402,-104.19 208.5,-144.29 158,-123 118.41,-106.31 81.03,-106.66 78.18,-67.03"></path>
<polygon fill="black" stroke="black" points="79.92,-66.94 78,-62 76.43,-67.06 79.92,-66.94"></polygon>
</g>
<!-- n6 -->
<!-- Z3 -->
<g id="n6" class="node">
<title>n6</title>
<polygon fill="none" stroke="black" points="132,-36.5 132,-61.5 180,-61.5 180,-36.5 132,-36.5"></polygon>
<text text-anchor="start" x="146.5" y="-45.3" font-family="Serif" font-size="14.00">Z3</text>
</g>
<!-- n2&#45;&gt;n6 -->
<!-- X_level -->
<g id="e5" class="edge">
<title>n2:s-&gt;n6:n</title>
<path fill="none" stroke="black" d="M402,-159C402,-118.86 261.6,-139.48 225,-123 185.51,-105.22 147.12,-106.9 144.18,-67.07"></path>
<polygon fill="black" stroke="black" points="145.93,-66.93 144,-62 142.43,-67.06 145.93,-66.93"></polygon>
</g>
<!-- n7 -->
<!-- Z4 -->
<g id="n7" class="node">
<title>n7</title>
<polygon fill="none" stroke="black" points="198,-36.5 198,-61.5 246,-61.5 246,-36.5 198,-36.5"></polygon>
<text text-anchor="start" x="212.5" y="-45.3" font-family="Serif" font-size="14.00">Z4</text>
</g>
<!-- n2&#45;&gt;n7 -->
<!-- X_level -->
<g id="e6" class="edge">
<title>n2:s-&gt;n7:n</title>
<path fill="none" stroke="black" d="M402,-159C402,-107.98 338.34,-146.4 293,-123 253.91,-102.83 213.3,-107.37 210.19,-67.13"></path>
<polygon fill="black" stroke="black" points="211.93,-66.93 210,-62 208.44,-67.06 211.93,-66.93"></polygon>
</g>
<!-- n8 -->
<!-- Z5 -->
<g id="n8" class="node">
<title>n8</title>
<polygon fill="none" stroke="black" points="264,-36.5 264,-61.5 312,-61.5 312,-36.5 264,-36.5"></polygon>
<text text-anchor="start" x="278.5" y="-45.3" font-family="Serif" font-size="14.00">Z5</text>
</g>
<!-- n2&#45;&gt;n8 -->
<!-- X_level -->
<g id="e7" class="edge">
<title>n2:s-&gt;n8:n</title>
<path fill="none" stroke="black" d="M402,-159C402,-128.28 367.58,-141.42 343,-123 312.29,-99.98 279.25,-102.01 276.23,-67.38"></path>
<polygon fill="black" stroke="black" points="277.96,-66.92 276,-62 274.46,-67.07 277.96,-66.92"></polygon>
</g>
<!-- n9 -->
<!-- Z6 -->
<g id="n9" class="node">
<title>n9</title>
<polygon fill="none" stroke="black" points="330,-36.5 330,-61.5 378,-61.5 378,-36.5 330,-36.5"></polygon>
<text text-anchor="start" x="344.5" y="-45.3" font-family="Serif" font-size="14.00">Z6</text>
</g>
<!-- n2&#45;&gt;n9 -->
<!-- X_level -->
<g id="e8" class="edge">
<title>n2:s-&gt;n9:n</title>
<path fill="none" stroke="black" d="M402,-159C402,-134.75 374.21,-143.34 361,-123 346.5,-100.68 342.49,-91.55 342.04,-67.1"></path>
<polygon fill="black" stroke="black" points="343.79,-66.98 342,-62 340.29,-67.01 343.79,-66.98"></polygon>
</g>
<!-- n10 -->
<!-- Z7 -->
<g id="n10" class="node">
<title>n10</title>
<polygon fill="none" stroke="black" points="396,-36.5 396,-61.5 444,-61.5 444,-36.5 396,-36.5"></polygon>
<text text-anchor="start" x="410.5" y="-45.3" font-family="Serif" font-size="14.00">Z7</text>
</g>
<!-- n2&#45;&gt;n10 -->
<!-- X_level -->
<g id="e9" class="edge">
<title>n2:s-&gt;n10:n</title>
<path fill="none" stroke="black" d="M402,-159C402,-117.66 407.5,-106.17 407.97,-67.39"></path>
<polygon fill="black" stroke="black" points="409.72,-67.01 408,-62 406.22,-66.99 409.72,-67.01"></polygon>
</g>
<!-- n11 -->
<!-- Z8 -->
<g id="n11" class="node">
<title>n11</title>
<polygon fill="none" stroke="black" points="462,-36.5 462,-61.5 510,-61.5 510,-36.5 462,-36.5"></polygon>
<text text-anchor="start" x="476.5" y="-45.3" font-family="Serif" font-size="14.00">Z8</text>
</g>
<!-- n2&#45;&gt;n11 -->
<!-- X_level -->
<g id="e10" class="edge">
<title>n2:s-&gt;n11:n</title>
<path fill="none" stroke="black" d="M402,-159C402,-107.09 469.3,-115.07 473.77,-67.14"></path>
<polygon fill="black" stroke="black" points="475.52,-67.07 474,-62 472.03,-66.92 475.52,-67.07"></polygon>
</g>
<!-- n12 -->
<!-- Z9 -->
<g id="n12" class="node">
<title>n12</title>
<polygon fill="none" stroke="black" points="528,-36.5 528,-61.5 576,-61.5 576,-36.5 528,-36.5"></polygon>
<text text-anchor="start" x="542.5" y="-45.3" font-family="Serif" font-size="14.00">Z9</text>
</g>
<!-- n2&#45;&gt;n12 -->
<!-- X_level -->
<g id="e11" class="edge">
<title>n2:s-&gt;n12:n</title>
<path fill="none" stroke="black" d="M402,-159C402,-154.77 514.36,-83.01 536.31,-65.59"></path>
<polygon fill="black" stroke="black" points="537.64,-66.74 540,-62 535.2,-64.23 537.64,-66.74"></polygon>
</g>
<!-- n13 -->
<!-- Z10 -->
<g id="n13" class="node">
<title>n13</title>
<polygon fill="none" stroke="black" points="594,-36.5 594,-61.5 642,-61.5 642,-36.5 594,-36.5"></polygon>
<text text-anchor="start" x="604" y="-45.3" font-family="Serif" font-size="14.00">Z10</text>
</g>
<!-- n2&#45;&gt;n13 -->
<!-- X_level -->
<g id="e12" class="edge">
<title>n2:s-&gt;n13:n</title>
<path fill="none" stroke="black" d="M402,-159C402,-118.79 448.59,-140.06 485,-123 537.94,-98.2 602.12,-120.82 605.83,-67.08"></path>
<polygon fill="black" stroke="black" points="607.58,-67.06 606,-62 604.08,-66.94 607.58,-67.06"></polygon>
</g>
<!-- n14 -->
<!-- Z11 -->
<g id="n14" class="node">
<title>n14</title>
<polygon fill="none" stroke="black" points="660,-36.5 660,-61.5 708,-61.5 708,-36.5 660,-36.5"></polygon>
<text text-anchor="start" x="670" y="-45.3" font-family="Serif" font-size="14.00">Z11</text>
</g>
<!-- n2&#45;&gt;n14 -->
<!-- X_level -->
<g id="e13" class="edge">
<title>n2:s-&gt;n14:n</title>
<path fill="none" stroke="black" d="M402,-159C402,-91.3 486.43,-146.28 550,-123 605.26,-102.76 668.19,-121.46 671.83,-67.12"></path>
<polygon fill="black" stroke="black" points="673.59,-67.05 672,-62 670.09,-66.94 673.59,-67.05"></polygon>
</g>
<!-- n15 -->
<!-- Z12 -->
<g id="n15" class="node">
<title>n15</title>
<polygon fill="none" stroke="black" points="726,-36.5 726,-61.5 774,-61.5 774,-36.5 726,-36.5"></polygon>
<text text-anchor="start" x="736" y="-45.3" font-family="Serif" font-size="14.00">Z12</text>
</g>
<!-- n2&#45;&gt;n15 -->
<!-- X_level -->
<g id="e14" class="edge">
<title>n2:s-&gt;n15:n</title>
<path fill="none" stroke="black" d="M402,-159C402,-110.78 570.15,-137.95 616,-123 671.95,-104.76 734.23,-121.58 737.84,-67.13"></path>
<polygon fill="black" stroke="black" points="739.59,-67.05 738,-62 736.09,-66.94 739.59,-67.05"></polygon>
</g>
<!-- n3&#45;&gt;n4 -->
<!-- Y_level -->
<g id="e15" class="edge">
<title>n3:s-&gt;n4:n</title>
<path fill="none" stroke="black" d="M382,-98C382,-22.51 52.03,-133.85 36.56,-67.12"></path>
<polygon fill="black" stroke="black" points="38.28,-66.78 36,-62 34.81,-67.16 38.28,-66.78"></polygon>
</g>
<!-- n3&#45;&gt;n5 -->
<!-- Y_level -->
<g id="e16" class="edge">
<title>n3:s-&gt;n5:n</title>
<path fill="none" stroke="black" d="M382,-98C382,-37.1 118.17,-119.62 102.71,-67.13"></path>
<polygon fill="black" stroke="black" points="104.42,-66.71 102,-62 100.95,-67.19 104.42,-66.71"></polygon>
</g>
<!-- n3&#45;&gt;n6 -->
<!-- Y_level -->
<g id="e17" class="edge">
<title>n3:s-&gt;n6:n</title>
<path fill="none" stroke="black" d="M382,-98C382,-3.34 175.87,-152.71 168.22,-67.11"></path>
<polygon fill="black" stroke="black" points="169.96,-66.92 168,-62 166.47,-67.07 169.96,-66.92"></polygon>
</g>
<!-- n3&#45;&gt;n7 -->
<!-- Y_level -->
<g id="e18" class="edge">
<title>n3:s-&gt;n7:n</title>
<path fill="none" stroke="black" d="M382,-98C382,-32.16 241.98,-124.39 234.33,-67.19"></path>
<polygon fill="black" stroke="black" points="236.06,-66.88 234,-62 232.57,-67.1 236.06,-66.88"></polygon>
</g>
<!-- n3&#45;&gt;n8 -->
<!-- Y_level -->
<g id="e19" class="edge">
<title>n3:s-&gt;n8:n</title>
<path fill="none" stroke="black" d="M382,-98C382,-60.06 307.51,-97.9 300.52,-67.06"></path>
<polygon fill="black" stroke="black" points="302.26,-66.79 300,-62 298.77,-67.15 302.26,-66.79"></polygon>
</g>
<!-- n3&#45;&gt;n9 -->
<!-- Y_level -->
<g id="e20" class="edge">
<title>n3:s-&gt;n9:n</title>
<path fill="none" stroke="black" d="M382,-98C382,-82.41 369.31,-79.92 366.53,-67.2"></path>
<polygon fill="black" stroke="black" points="368.25,-66.8 366,-62 364.77,-67.15 368.25,-66.8"></polygon>
</g>
<!-- n3&#45;&gt;n10 -->
<!-- Y_level -->
<g id="e21" class="edge">
<title>n3:s-&gt;n10:n</title>
<path fill="none" stroke="black" d="M382,-98C382,-72.54 425.22,-86.97 431.29,-67.12"></path>
<polygon fill="black" stroke="black" points="433.05,-67.19 432,-62 429.58,-66.71 433.05,-67.19"></polygon>
</g>
<!-- n3&#45;&gt;n11 -->
<!-- Y_level -->
<g id="e22" class="edge">
<title>n3:s-&gt;n11:n</title>
<path fill="none" stroke="black" d="M382,-98C382,-45.92 489.99,-111.08 497.58,-67.24"></path>
<polygon fill="black" stroke="black" points="499.34,-67.12 498,-62 495.86,-66.84 499.34,-67.12"></polygon>
</g>
<!-- n3&#45;&gt;n12 -->
<!-- Y_level -->
<g id="e23" class="edge">
<title>n3:s-&gt;n12:n</title>
<path fill="none" stroke="black" d="M382,-98C382,-17.32 556.26,-139.01 563.75,-67.03"></path>
<polygon fill="black" stroke="black" points="565.5,-67.08 564,-62 562.01,-66.91 565.5,-67.08"></polygon>
</g>
<!-- n3&#45;&gt;n13 -->
<!-- Y_level -->
<g id="e24" class="edge">
<title>n3:s-&gt;n13:n</title>
<path fill="none" stroke="black" d="M382,-98C382,-44.16 613.8,-112.83 629.2,-67.12"></path>
<polygon fill="black" stroke="black" points="630.96,-67.21 630,-62 627.5,-66.67 630.96,-67.21"></polygon>
</g>
<!-- n3&#45;&gt;n14 -->
<!-- Y_level -->
<g id="e25" class="edge">
<title>n3:s-&gt;n14:n</title>
<path fill="none" stroke="black" d="M382,-98C382,-29.55 680.26,-127.04 695.4,-67.02"></path>
<polygon fill="black" stroke="black" points="697.15,-67.17 696,-62 693.67,-66.76 697.15,-67.17"></polygon>
</g>
<!-- n3&#45;&gt;n15 -->
<!-- Y_level -->
<g id="e26" class="edge">
<title>n3:s-&gt;n15:n</title>
<path fill="none" stroke="black" d="M382,-98C382,-15 745.85,-141.18 761.48,-67.17"></path>
<polygon fill="black" stroke="black" points="763.24,-67.15 762,-62 759.76,-66.8 763.24,-67.15"></polygon>
</g>
<!-- n4&#45;&gt;n0out1 -->
<!-- Z1_level -->
<g id="e28" class="edge">
<title>n4:s-&gt;n0out1:n</title>
<path fill="none" stroke="black" d="M24,-37C24,-21.98 33.52,-18.54 35.6,-6.05"></path>
<polygon fill="black" stroke="black" points="37.35,-6.12 36,-1 33.86,-5.85 37.35,-6.12"></polygon>
</g>
<!-- n5&#45;&gt;n0out2 -->
<!-- Z2_level -->
<g id="e29" class="edge">
<title>n5:s-&gt;n0out2:n</title>
<path fill="none" stroke="black" d="M90,-37C90,-22.88 90,-18.1 90,-6.17"></path>
<polygon fill="black" stroke="black" points="91.75,-6 90,-1 88.25,-6 91.75,-6"></polygon>
</g>
<!-- n6&#45;&gt;n0out3 -->
<!-- Z3_level -->
<g id="e30" class="edge">
<title>n6:s-&gt;n0out3:n</title>
<path fill="none" stroke="black" d="M156,-37C156,-22.88 156,-18.1 156,-6.17"></path>
<polygon fill="black" stroke="black" points="157.75,-6 156,-1 154.25,-6 157.75,-6"></polygon>
</g>
<!-- n7&#45;&gt;n0out4 -->
<!-- Z4_level -->
<g id="e31" class="edge">
<title>n7:s-&gt;n0out4:n</title>
<path fill="none" stroke="black" d="M222,-37C222,-22.88 222,-18.1 222,-6.17"></path>
<polygon fill="black" stroke="black" points="223.75,-6 222,-1 220.25,-6 223.75,-6"></polygon>
</g>
<!-- n8&#45;&gt;n0out5 -->
<!-- Z5_level -->
<g id="e32" class="edge">
<title>n8:s-&gt;n0out5:n</title>
<path fill="none" stroke="black" d="M288,-37C288,-22.88 288,-18.1 288,-6.17"></path>
<polygon fill="black" stroke="black" points="289.75,-6 288,-1 286.25,-6 289.75,-6"></polygon>
</g>
<!-- n9&#45;&gt;n0out6 -->
<!-- Z6_level -->
<g id="e33" class="edge">
<title>n9:s-&gt;n0out6:n</title>
<path fill="none" stroke="black" d="M354,-37C354,-22.88 354,-18.1 354,-6.17"></path>
<polygon fill="black" stroke="black" points="355.75,-6 354,-1 352.25,-6 355.75,-6"></polygon>
</g>
<!-- n10&#45;&gt;n0out7 -->
<!-- Z7_level -->
<g id="e34" class="edge">
<title>n10:s-&gt;n0out7:n</title>
<path fill="none" stroke="black" d="M420,-37C420,-22.88 420,-18.1 420,-6.17"></path>
<polygon fill="black" stroke="black" points="421.75,-6 420,-1 418.25,-6 421.75,-6"></polygon>
</g>
<!-- n11&#45;&gt;n0out8 -->
<!-- Z8_level -->
<g id="e35" class="edge">
<title>n11:s-&gt;n0out8:n</title>
<path fill="none" stroke="black" d="M486,-37C486,-22.88 486,-18.1 486,-6.17"></path>
<polygon fill="black" stroke="black" points="487.75,-6 486,-1 484.25,-6 487.75,-6"></polygon>
</g>
<!-- n12&#45;&gt;n0out9 -->
<!-- Z9_level -->
<g id="e36" class="edge">
<title>n12:s-&gt;n0out9:n</title>
<path fill="none" stroke="black" d="M552,-37C552,-22.88 552,-18.1 552,-6.17"></path>
<polygon fill="black" stroke="black" points="553.75,-6 552,-1 550.25,-6 553.75,-6"></polygon>
</g>
<!-- n13&#45;&gt;n0out10 -->
<!-- Z10_level -->
<g id="e37" class="edge">
<title>n13:s-&gt;n0out10:n</title>
<path fill="none" stroke="black" d="M618,-37C618,-22.88 618,-18.1 618,-6.17"></path>
<polygon fill="black" stroke="black" points="619.75,-6 618,-1 616.25,-6 619.75,-6"></polygon>
</g>
<!-- n14&#45;&gt;n0out11 -->
<!-- Z11_level -->
<g id="e38" class="edge">
<title>n14:s-&gt;n0out11:n</title>
<path fill="none" stroke="black" d="M684,-37C684,-22.88 684,-18.1 684,-6.17"></path>
<polygon fill="black" stroke="black" points="685.75,-6 684,-1 682.25,-6 685.75,-6"></polygon>
</g>
<!-- n15&#45;&gt;n0out12 -->
<!-- Z12_level -->
<g id="e39" class="edge">
<title>n15:s-&gt;n0out12:n</title>
<path fill="none" stroke="black" d="M750,-37C750,-22.88 750,-18.1 750,-6.17"></path>
<polygon fill="black" stroke="black" points="751.75,-6 750,-1 748.25,-6 751.75,-6"></polygon>
</g>
</g>
</svg>